<svg width="100" height="25" viewBox="0 0 100 25" fill="none" xmlns="http://www.w3.org/2000/svg">
<path d="M11.96 5.952C14.008 5.952 15.6507 6.63467 16.888 8C18.1253 9.344 18.744 11.2 18.744 13.568L18.744 24L13.304 24L13.304 14.304C13.304 13.1093 12.9947 12.1813 12.376 11.52C11.7573 10.8587 10.9253 10.528 9.88 10.528C8.83467 10.528 8.00267 10.8587 7.384 11.52C6.76533 12.1813 6.456 13.1093 6.456 14.304L6.456 24L0.984 24L0.984 0.32L6.456 0.32L6.456 8.544C7.01067 7.75467 7.768 7.12533 8.728 6.656C9.688 6.18667 10.7653 5.952 11.96 5.952ZM39.3785 14.784C39.3785 15.296 39.3465 15.8293 39.2825 16.384L26.8985 16.384C26.9838 17.4933 27.3358 18.3467 27.9545 18.944C28.5945 19.52 29.3732 19.808 30.2905 19.808C31.6558 19.808 32.6052 19.232 33.1385 18.08L38.9625 18.08C38.6638 19.2533 38.1198 20.3093 37.3305 21.248C36.5625 22.1867 35.5918 22.9227 34.4185 23.456C33.2452 23.9893 31.9332 24.256 30.4825 24.256C28.7332 24.256 27.1758 23.8827 25.8105 23.136C24.4452 22.3893 23.3785 21.3227 22.6105 19.936C21.8425 18.5493 21.4585 16.928 21.4585 15.072C21.4585 13.216 21.8318 11.5947 22.5785 10.208C23.3465 8.82133 24.4132 7.75467 25.7785 7.008C27.1438 6.26133 28.7118 5.888 30.4825 5.888C32.2105 5.888 33.7465 6.25067 35.0905 6.976C36.4345 7.70133 37.4798 8.736 38.2265 10.08C38.9945 11.424 39.3785 12.992 39.3785 14.784ZM33.7785 13.344C33.7785 12.4053 33.4585 11.6587 32.8185 11.104C32.1785 10.5493 31.3785 10.272 30.4185 10.272C29.5012 10.272 28.7225 10.5387 28.0825 11.072C27.4638 11.6053 27.0798 12.3627 26.9305 13.344L33.7785 13.344ZM47.7373 0.32L47.7373 24L42.2653 24L42.2653 0.32L47.7373 0.32ZM57.1748 0.32L57.1748 24L51.7028 24L51.7028 0.32L57.1748 0.32ZM69.2683 24.256C67.5189 24.256 65.9403 23.8827 64.5323 23.136C63.1456 22.3893 62.0469 21.3227 61.2363 19.936C60.4469 18.5493 60.0523 16.928 60.0523 15.072C60.0523 13.2373 60.4576 11.6267 61.2682 10.24C62.0789 8.832 63.1883 7.75467 64.5963 7.008C66.0043 6.26133 67.5829 5.888 69.3323 5.888C71.0816 5.888 72.6603 6.26133 74.0683 7.008C75.4763 7.75467 76.5856 8.832 77.3963 10.24C78.2069 11.6267 78.6123 13.2373 78.6123 15.072C78.6123 16.9067 78.1963 18.528 77.3643 19.936C76.5536 21.3227 75.4336 22.3893 74.0043 23.136C72.5963 23.8827 71.0176 24.256 69.2683 24.256ZM69.2683 19.52C70.3136 19.52 71.1989 19.136 71.9243 18.368C72.6709 17.6 73.0443 16.5013 73.0443 15.072C73.0443 13.6427 72.6816 12.544 71.9563 11.776C71.2523 11.008 70.3776 10.624 69.3323 10.624C68.2656 10.624 67.3803 11.008 66.6763 11.776C65.9723 12.5227 65.6203 13.6213 65.6203 15.072C65.6203 16.5013 65.9616 17.6 66.6443 18.368C67.3483 19.136 68.2229 19.52 69.2683 19.52ZM99.1473 6.144L99.1473 24L93.6753 24L93.6753 21.568C93.1206 22.3573 92.3633 22.9973 91.4033 23.488C90.4646 23.9573 89.4193 24.192 88.2673 24.192C86.9019 24.192 85.6966 23.8933 84.6513 23.296C83.6059 22.6773 82.7953 21.792 82.2193 20.64C81.6433 19.488 81.3553 18.1333 81.3553 16.576L81.3553 6.144L86.7953 6.144L86.7953 15.84C86.7953 17.0347 87.1046 17.9627 87.7233 18.624C88.3419 19.2853 89.1739 19.616 90.2193 19.616C91.2859 19.616 92.1286 19.2853 92.7473 18.624C93.3659 17.9627 93.6753 17.0347 93.6753 15.84L93.6753 6.144L99.1473 6.144Z" fill="url(#paint0_linear)"/>
<defs>
<linearGradient id="paint0_linear" x1="3.60159" y1="11" x2="90.4044" y2="11" gradientUnits="userSpaceOnUse">
<stop stop-color="#711FB1"/>
<stop offset="1" stop-color="#B82CB4"/>
</linearGradient>
</defs>
</svg>
