<svg width="414" height="108" viewBox="0 0 414 108" fill="none" xmlns="http://www.w3.org/2000/svg">
<g clip-path="url(#clip0)">
<path d="M-9.00002 19.6494L8.39667 26.657C25.7946 33.7992 59.0466 53.3844 95.9803 57.0729C136.66 61.1356 164.582 46.6828 199.2 41.0933C233.816 35.3021 268.452 31.6294 303.132 33.0008C337.812 34.3722 372.544 41.4603 407.256 46.4298C441.97 51.6011 476.666 54.6538 494.015 56.4156L511.364 58.0429L511.845 111.846L494.513 112.001C477.18 112.156 442.515 112.466 407.849 112.776C373.184 113.086 338.519 113.396 303.853 113.706C269.188 114.016 234.523 114.326 199.858 114.636C165.192 114.946 130.527 115.256 95.8618 115.566C61.1965 115.876 26.5312 116.186 9.19858 116.341L-8.13406 116.496L-9.00002 19.6494Z" fill="#711FB1"/>
</g>
<defs>
<clipPath id="clip0">
<rect width="520" height="107.612" fill="white" transform="translate(-46 4.64941) rotate(-0.512301)"/>
</clipPath>
</defs>
</svg>
